<?xml version="1.0" encoding="UTF-8" standalone="no"?>
<!-- Generator: Gravit.io -->

<svg
   xmlns:dc="http://purl.org/dc/elements/1.1/"
   xmlns:cc="http://creativecommons.org/ns#"
   xmlns:rdf="http://www.w3.org/1999/02/22-rdf-syntax-ns#"
   xmlns:svg="http://www.w3.org/2000/svg"
   xmlns="http://www.w3.org/2000/svg"
   xmlns:sodipodi="http://sodipodi.sourceforge.net/DTD/sodipodi-0.dtd"
   xmlns:inkscape="http://www.inkscape.org/namespaces/inkscape"
   style="isolation:isolate"
   viewBox="0 0 1980 1080"
   width="1980"
   height="1080"
   id="svg3789"
   version="1.1"
   inkscape:version="0.91 r13725"
   sodipodi:docname="1980x1080-1.svg">
  <metadata
     id="metadata3802">
    <rdf:RDF>
      <cc:Work
         rdf:about="">
        <dc:format>image/svg+xml</dc:format>
        <dc:type
           rdf:resource="http://purl.org/dc/dcmitype/StillImage" />
        <dc:title></dc:title>
      </cc:Work>
    </rdf:RDF>
  </metadata>
  <sodipodi:namedview
     pagecolor="#ffffff"
     bordercolor="#666666"
     borderopacity="1"
     objecttolerance="10"
     gridtolerance="10"
     guidetolerance="10"
     inkscape:pageopacity="0"
     inkscape:pageshadow="2"
     inkscape:window-width="1301"
     inkscape:window-height="744"
     id="namedview3800"
     showgrid="false"
     inkscape:zoom="0.75579668"
     inkscape:cx="804.36901"
     inkscape:cy="973.80372"
     inkscape:window-x="65"
     inkscape:window-y="24"
     inkscape:window-maximized="1"
     inkscape:current-layer="svg3789" />
  <defs
     id="defs3791">
    <clipPath
       id="_clipPath_8nvPm7u7TLkU9uuFmV3c294qtRvVsrvD">
      <rect
         width="1980"
         height="1080"
         id="rect3794" />
    </clipPath>
  </defs>
  <g
     clip-path="url(#_clipPath_8nvPm7u7TLkU9uuFmV3c294qtRvVsrvD)"
     id="g3796">
    <rect
       width="1980"
       height="1080"
       style="fill:rgb(255,153,0)"
       id="rect3798" />
  </g>
  <text
     xml:space="preserve"
     style="font-style:normal;font-weight:normal;font-size:40px;line-height:125%;font-family:sans-serif;letter-spacing:0px;word-spacing:0px;isolation:isolate;fill:#ffffff;fill-opacity:1;stroke:none;stroke-width:1px;stroke-linecap:butt;stroke-linejoin:miter;stroke-opacity:1"
     x="578.96631"
     y="146.94489"
     id="text4015"
     sodipodi:linespacing="125%"><tspan
       sodipodi:role="line"
       id="tspan4017"
       x="578.96631"
       y="146.94489"
       style="font-style:normal;font-variant:normal;font-weight:bold;font-stretch:normal;font-family:Lato;-inkscape-font-specification:'Lato Bold';fill:#ffffff;font-size:80px">PoliLinux Helios</tspan></text>
  <g
     id="g4454"
     transform="matrix(0.25266677,0.01118834,-0.01047357,0.24271495,225.52537,62.693537)"
     style="isolation:isolate;fill:#ffffff">
    <g
       id="g4406"
       style="fill:#ffffff">
      <path
         id="path4408"
         d="m 55.237,336.353 c 3.905,-3.905 3.905,-10.237 0,-14.143 -3.905,-3.904 -10.237,-3.904 -14.143,0 L 2.929,360.377 c -3.905,3.905 -3.905,10.237 0,14.143 1.952,1.952 4.512,2.929 7.071,2.929 2.559,0 5.119,-0.977 7.071,-2.929 l 38.166,-38.167 z"
         inkscape:connector-curvature="0"
         style="fill:#ffffff" />
      <path
         id="path4410"
         d="m 306.916,68.629 c -8.868,8.869 -13.752,20.66 -13.752,33.201 0,12.542 4.884,24.333 13.752,33.201 9.153,9.153 21.177,13.729 33.201,13.729 12.024,0 24.047,-4.576 33.2,-13.729 8.869,-8.868 13.752,-20.659 13.752,-33.201 0,-12.541 -4.884,-24.332 -13.752,-33.201 -18.306,-18.306 -48.093,-18.306 -66.401,0 z m 52.259,52.26 c -10.509,10.511 -27.607,10.51 -38.117,0 -5.091,-5.091 -7.894,-11.858 -7.894,-19.059 0,-7.199 2.804,-13.968 7.894,-19.059 5.255,-5.255 12.156,-7.882 19.059,-7.882 6.901,0 13.805,2.628 19.058,7.882 5.091,5.091 7.895,11.859 7.895,19.059 0,7.201 -2.804,13.968 -7.895,19.059 z"
         inkscape:connector-curvature="0"
         style="fill:#ffffff" />
      <path
         id="path4412"
         d="m 86.775,353.748 c -3.905,-3.904 -10.237,-3.904 -14.142,0 l -53.536,53.537 c -3.905,3.905 -3.905,10.237 0,14.143 1.953,1.952 4.512,2.929 7.071,2.929 2.559,0 5.119,-0.977 7.071,-2.929 l 53.536,-53.537 c 3.905,-3.906 3.905,-10.238 0,-14.143 z"
         inkscape:connector-curvature="0"
         style="fill:#ffffff" />
      <path
         id="path4414"
         d="M 435.581,13.329 C 434.643,9.947 432,7.306 428.62,6.367 392.175,-3.748 352.699,-1.78 314.459,12.055 284.828,22.776 256.01,40.748 235.394,61.365 L 204.298,92.461 91.644,110.058 c -2.094,0.327 -4.029,1.311 -5.528,2.809 l -72.051,72.051 c -2.806,2.807 -3.688,7.006 -2.247,10.703 1.441,3.697 4.933,6.192 8.897,6.359 l 71.073,2.989 -17.813,17.813 c -3.905,3.905 -3.905,10.237 0,14.143 l 10.397,10.396 -31.053,47.599 c -2.584,3.961 -2.041,9.19 1.304,12.535 l 79.871,79.87 c 3.345,3.344 8.574,3.89 12.536,1.304 l 47.597,-31.054 10.397,10.397 c 3.905,3.904 10.237,3.904 14.143,0 l 17.813,-17.813 2.989,71.071 c 0.167,3.965 2.662,7.456 6.359,8.897 1.18,0.46 2.41,0.683 3.63,0.683 2.604,0 5.162,-1.019 7.073,-2.929 l 72.051,-72.051 c 1.499,-1.499 2.482,-3.435 2.81,-5.528 l 17.598,-112.653 31.095,-31.096 c 20.616,-20.616 38.589,-49.434 49.31,-79.064 13.833,-38.239 15.8,-77.716 5.686,-114.16 z M 142.898,367.444 74.504,299.05 l 24.321,-37.278 33.604,33.604 -3.952,3.952 c -3.906,3.905 -3.906,10.237 0,14.143 3.905,3.904 10.237,3.904 14.143,0 l 3.952,-3.952 33.604,33.604 -37.278,24.321 z M 366.441,192.412 333.04,225.814 c -0.004,0.004 -0.008,0.008 -0.012,0.012 l -34.754,34.754 c -3.905,3.905 -3.905,10.237 0,14.143 3.905,3.904 10.237,3.904 14.143,0 l 13.082,-13.082 -12.865,82.354 -53.64,53.641 -2.804,-66.686 27.943,-27.943 c 3.905,-3.905 3.905,-10.237 0,-14.143 -3.905,-3.904 -10.237,-3.904 -14.143,0 l -31.021,31.021 c -0.017,0.017 -0.033,0.033 -0.05,0.05 l -26.824,26.823 -8.917,-8.917 c -0.102,-0.105 -0.204,-0.208 -0.31,-0.309 L 160.713,295.376 281.658,174.432 c 3.905,-3.905 3.906,-10.237 0,-14.143 -3.904,-3.903 -10.236,-3.904 -14.142,0 L 146.571,281.235 104.414,239.078 c -0.1,-0.104 -0.202,-0.206 -0.307,-0.307 l -8.917,-8.918 26.824,-26.824 c 0.017,-0.016 0.033,-0.032 0.049,-0.049 l 31.021,-31.021 c 3.906,-3.905 3.906,-10.237 0,-14.143 -3.904,-3.904 -10.237,-3.904 -14.142,0 l -27.943,27.943 -66.686,-2.805 53.64,-53.64 82.354,-12.864 -13.082,13.081 14.142,14.143 34.649,-34.649 c 0.075,-0.073 0.15,-0.147 0.223,-0.223 l 33.296,-33.296 c 27.828,-27.827 93.904,-69.058 168.203,-51.297 17.761,74.3 -23.47,140.377 -51.297,168.203 z"
         inkscape:connector-curvature="0"
         style="fill:#ffffff" />
      <path
         id="path4416"
         d="m 105.595,386.711 -38.166,38.166 c -3.905,3.905 -3.905,10.237 0,14.143 1.953,1.952 4.512,2.929 7.071,2.929 2.559,0 5.119,-0.977 7.071,-2.929 l 38.166,-38.166 c 3.905,-3.905 3.905,-10.237 0,-14.143 -3.904,-3.905 -10.236,-3.905 -14.142,0 z"
         inkscape:connector-curvature="0"
         style="fill:#ffffff" />
    </g>
    <g
       id="g4418"
       style="fill:#ffffff" />
    <g
       id="g4420"
       style="fill:#ffffff" />
    <g
       id="g4422"
       style="fill:#ffffff" />
    <g
       id="g4424"
       style="fill:#ffffff" />
    <g
       id="g4426"
       style="fill:#ffffff" />
    <g
       id="g4428"
       style="fill:#ffffff" />
    <g
       id="g4430"
       style="fill:#ffffff" />
    <g
       id="g4432"
       style="fill:#ffffff" />
    <g
       id="g4434"
       style="fill:#ffffff" />
    <g
       id="g4436"
       style="fill:#ffffff" />
    <g
       id="g4438"
       style="fill:#ffffff" />
    <g
       id="g4440"
       style="fill:#ffffff" />
    <g
       id="g4442"
       style="fill:#ffffff" />
    <g
       id="g4444"
       style="fill:#ffffff" />
    <g
       id="g4446"
       style="fill:#ffffff" />
  </g>
</svg>
